<?xml version="1.0" encoding="UTF-8" standalone="no"?>
<!DOCTYPE svg PUBLIC "-//W3C//DTD SVG 1.1//EN"
 "http://www.w3.org/Graphics/SVG/1.1/DTD/svg11.dtd">
<!-- Generated by graphviz version 2.43.0 (0)
 -->
<!-- Title: G Pages: 1 -->
<svg width="1737pt" height="1217pt"
 viewBox="0.00 0.00 1737.50 1216.81" xmlns="http://www.w3.org/2000/svg" xmlns:xlink="http://www.w3.org/1999/xlink">
<g id="graph0" class="graph" transform="scale(1 1) rotate(0) translate(4 1212.81)">
<title>G</title>
<polygon fill="white" stroke="transparent" points="-4,4 -4,-1212.81 1733.5,-1212.81 1733.5,4 -4,4"/>
<!-- 1 -->
<g id="node1" class="node">
<title>1</title>
<polygon fill="none" stroke="#0ef100" stroke-width="3" points="258.04,-106 136.04,-53 258.04,0 380.04,-53 258.04,-106"/>
<text text-anchor="middle" x="258.04" y="-64.3" font-family="Times,serif" font-size="14.00">1 (1)</text>
<text text-anchor="middle" x="258.04" y="-49.3" font-family="Times,serif" font-size="14.00">1:admin(domain):0</text>
<text text-anchor="middle" x="258.04" y="-34.3" font-family="Times,serif" font-size="14.00">0.056</text>
</g>
<!-- 2 -->
<g id="node2" class="node">
<title>2</title>
<ellipse fill="none" stroke="#11ee00" stroke-width="3" cx="258.04" cy="-179.48" rx="60.62" ry="37.45"/>
<text text-anchor="middle" x="258.04" y="-190.78" font-family="Times,serif" font-size="14.00">2 (2)</text>
<text text-anchor="middle" x="258.04" y="-175.78" font-family="Times,serif" font-size="14.00">CVE&#45;0000&#45;1</text>
<text text-anchor="middle" x="258.04" y="-160.78" font-family="Times,serif" font-size="14.00">0.070</text>
</g>
<!-- 2&#45;&gt;1 -->
<g id="edge18" class="edge">
<title>2&#45;&gt;1</title>
<path fill="none" stroke="black" d="M258.04,-141.8C258.04,-133.76 258.04,-125.03 258.04,-116.3"/>
<polygon fill="black" stroke="black" points="261.54,-116.09 258.04,-106.09 254.54,-116.09 261.54,-116.09"/>
</g>
<!-- 3 -->
<g id="node3" class="node">
<title>3</title>
<polygon fill="none" stroke="#23dc00" stroke-width="3" points="336.04,-358.95 208.04,-305.95 336.04,-252.95 464.04,-305.95 336.04,-358.95"/>
<text text-anchor="middle" x="336.04" y="-317.25" font-family="Times,serif" font-size="14.00">3 (4)</text>
<text text-anchor="middle" x="336.04" y="-302.25" font-family="Times,serif" font-size="14.00">4:dcSync(domain):0</text>
<text text-anchor="middle" x="336.04" y="-287.25" font-family="Times,serif" font-size="14.00">0.141</text>
</g>
<!-- 3&#45;&gt;2 -->
<g id="edge15" class="edge">
<title>3&#45;&gt;2</title>
<path fill="none" stroke="black" d="M310.07,-263.5C302,-250.63 293.1,-236.42 284.97,-223.45"/>
<polygon fill="black" stroke="black" points="287.76,-221.31 279.49,-214.7 281.83,-225.03 287.76,-221.31"/>
</g>
<!-- 4 -->
<g id="node4" class="node">
<title>4</title>
<ellipse fill="none" stroke="#29d600" stroke-width="3" cx="380.04" cy="-432.43" rx="60.62" ry="37.45"/>
<text text-anchor="middle" x="380.04" y="-443.73" font-family="Times,serif" font-size="14.00">4 (5)</text>
<text text-anchor="middle" x="380.04" y="-428.73" font-family="Times,serif" font-size="14.00">CVE&#45;0000&#45;2</text>
<text text-anchor="middle" x="380.04" y="-413.73" font-family="Times,serif" font-size="14.00">0.162</text>
</g>
<!-- 4&#45;&gt;3 -->
<g id="edge14" class="edge">
<title>4&#45;&gt;3</title>
<path fill="none" stroke="black" d="M367.43,-395.76C363.7,-385.21 359.53,-373.4 355.48,-361.93"/>
<polygon fill="black" stroke="black" points="358.74,-360.67 352.11,-352.41 352.14,-363 358.74,-360.67"/>
</g>
<!-- 5 -->
<g id="node5" class="node">
<title>5</title>
<polygon fill="none" stroke="#52ad00" stroke-width="3" points="623.04,-611.91 456.04,-558.91 623.04,-505.91 790.04,-558.91 623.04,-611.91"/>
<text text-anchor="middle" x="623.04" y="-570.21" font-family="Times,serif" font-size="14.00">5 (7)</text>
<text text-anchor="middle" x="623.04" y="-555.21" font-family="Times,serif" font-size="14.00">7:passTheTicket(domain):0</text>
<text text-anchor="middle" x="623.04" y="-540.21" font-family="Times,serif" font-size="14.00">0.324</text>
</g>
<!-- 5&#45;&gt;4 -->
<g id="edge9" class="edge">
<title>5&#45;&gt;4</title>
<path fill="none" stroke="black" d="M560.15,-525.69C521.52,-505.9 472.49,-480.79 435.34,-461.76"/>
<polygon fill="black" stroke="black" points="436.67,-458.5 426.17,-457.06 433.48,-464.73 436.67,-458.5"/>
</g>
<!-- 6 -->
<g id="node6" class="node">
<title>6</title>
<ellipse fill="none" stroke="#01fe00" stroke-width="3" cx="623.04" cy="-685.38" rx="60.62" ry="37.45"/>
<text text-anchor="middle" x="623.04" y="-696.68" font-family="Times,serif" font-size="14.00">6 (8)</text>
<text text-anchor="middle" x="623.04" y="-681.68" font-family="Times,serif" font-size="14.00">CVE&#45;0000&#45;3</text>
<text text-anchor="middle" x="623.04" y="-666.68" font-family="Times,serif" font-size="14.00">0.008</text>
</g>
<!-- 6&#45;&gt;5 -->
<g id="edge8" class="edge">
<title>6&#45;&gt;5</title>
<path fill="none" stroke="black" d="M623.04,-647.71C623.04,-639.67 623.04,-630.94 623.04,-622.21"/>
<polygon fill="black" stroke="black" points="626.54,-622 623.04,-612 619.54,-622 626.54,-622"/>
</g>
<!-- 7 -->
<g id="node7" class="node">
<title>7</title>
<polygon fill="none" stroke="#07f800" stroke-width="3" points="445.04,-864.86 320.04,-811.86 445.04,-758.86 570.04,-811.86 445.04,-864.86"/>
<text text-anchor="middle" x="445.04" y="-823.16" font-family="Times,serif" font-size="14.00">7 (10)</text>
<text text-anchor="middle" x="445.04" y="-808.16" font-family="Times,serif" font-size="14.00">10:mitm(domain):0</text>
<text text-anchor="middle" x="445.04" y="-793.16" font-family="Times,serif" font-size="14.00">0.031</text>
</g>
<!-- 7&#45;&gt;6 -->
<g id="edge5" class="edge">
<title>7&#45;&gt;6</title>
<path fill="none" stroke="black" d="M491.35,-778.48C517.19,-760.41 549.32,-737.94 575.38,-719.72"/>
<polygon fill="black" stroke="black" points="577.42,-722.56 583.61,-713.96 573.41,-716.82 577.42,-722.56"/>
</g>
<!-- 13 -->
<g id="node13" class="node">
<title>13</title>
<ellipse fill="none" stroke="#03fc00" stroke-width="3" cx="115.04" cy="-685.38" rx="75.82" ry="37.45"/>
<text text-anchor="middle" x="115.04" y="-696.68" font-family="Times,serif" font-size="14.00">13 (18)</text>
<text text-anchor="middle" x="115.04" y="-681.68" font-family="Times,serif" font-size="14.00">CVE&#45;2019&#45;1040</text>
<text text-anchor="middle" x="115.04" y="-666.68" font-family="Times,serif" font-size="14.00">0.015</text>
</g>
<!-- 7&#45;&gt;13 -->
<g id="edge6" class="edge">
<title>7&#45;&gt;13</title>
<path fill="none" stroke="black" d="M379.85,-786.27C323.17,-764.89 241.34,-734.02 183.68,-712.27"/>
<polygon fill="black" stroke="black" points="184.88,-708.98 174.29,-708.73 182.41,-715.53 184.88,-708.98"/>
</g>
<!-- 14 -->
<g id="node14" class="node">
<title>14</title>
<ellipse fill="none" stroke="#02fd00" stroke-width="3" cx="398.04" cy="-685.38" rx="75.82" ry="37.45"/>
<text text-anchor="middle" x="398.04" y="-696.68" font-family="Times,serif" font-size="14.00">14 (20)</text>
<text text-anchor="middle" x="398.04" y="-681.68" font-family="Times,serif" font-size="14.00">CVE&#45;2020&#45;1472</text>
<text text-anchor="middle" x="398.04" y="-666.68" font-family="Times,serif" font-size="14.00">0.011</text>
</g>
<!-- 7&#45;&gt;14 -->
<g id="edge7" class="edge">
<title>7&#45;&gt;14</title>
<path fill="none" stroke="black" d="M428.08,-765.92C423.89,-754.83 419.4,-742.93 415.2,-731.81"/>
<polygon fill="black" stroke="black" points="418.41,-730.4 411.6,-722.28 411.86,-732.87 418.41,-730.4"/>
</g>
<!-- 8 -->
<g id="node8" class="node">
<title>8</title>
<ellipse fill="none" stroke="#09f600" stroke-width="3" cx="577.04" cy="-938.34" rx="79.81" ry="37.45"/>
<text text-anchor="middle" x="577.04" y="-949.64" font-family="Times,serif" font-size="14.00">8 (11)</text>
<text text-anchor="middle" x="577.04" y="-934.64" font-family="Times,serif" font-size="14.00">CVE&#45;2022&#45;26925</text>
<text text-anchor="middle" x="577.04" y="-919.64" font-family="Times,serif" font-size="14.00">0.039</text>
</g>
<!-- 8&#45;&gt;7 -->
<g id="edge4" class="edge">
<title>8&#45;&gt;7</title>
<path fill="none" stroke="black" d="M542.02,-904.31C526.38,-889.57 507.76,-872 491.02,-856.22"/>
<polygon fill="black" stroke="black" points="493.16,-853.43 483.49,-849.11 488.36,-858.52 493.16,-853.43"/>
</g>
<!-- 9 -->
<g id="node9" class="node">
<title>9</title>
<polygon fill="none" stroke="#fe0100" stroke-width="3" points="1357.54,-1064.81 1176.54,-1064.81 1176.54,-1011.81 1357.54,-1011.81 1357.54,-1064.81"/>
<text text-anchor="middle" x="1267.04" y="-1049.61" font-family="Times,serif" font-size="14.00">9 (13)</text>
<text text-anchor="middle" x="1267.04" y="-1034.61" font-family="Times,serif" font-size="14.00">13:attackerLocated(domain):1</text>
<text text-anchor="middle" x="1267.04" y="-1019.61" font-family="Times,serif" font-size="14.00">1.000</text>
</g>
<!-- 9&#45;&gt;8 -->
<g id="edge1" class="edge">
<title>9&#45;&gt;8</title>
<path fill="none" stroke="black" d="M1176.48,-1024.45C1042.77,-1005.47 794.23,-970.18 663.13,-951.56"/>
<polygon fill="black" stroke="black" points="663.52,-948.08 653.12,-950.14 662.53,-955.01 663.52,-948.08"/>
</g>
<!-- 12 -->
<g id="node12" class="node">
<title>12</title>
<ellipse fill="none" stroke="#fe0100" stroke-width="3" cx="1267.04" cy="-938.34" rx="130.63" ry="37.45"/>
<text text-anchor="middle" x="1267.04" y="-949.64" font-family="Times,serif" font-size="14.00">12 (17)</text>
<text text-anchor="middle" x="1267.04" y="-934.64" font-family="Times,serif" font-size="14.00">valid credentials may be found</text>
<text text-anchor="middle" x="1267.04" y="-919.64" font-family="Times,serif" font-size="14.00">1.000</text>
</g>
<!-- 9&#45;&gt;12 -->
<g id="edge2" class="edge">
<title>9&#45;&gt;12</title>
<path fill="none" stroke="black" d="M1267.04,-1011.57C1267.04,-1003.75 1267.04,-994.89 1267.04,-986.13"/>
<polygon fill="black" stroke="black" points="1270.54,-985.96 1267.04,-975.96 1263.54,-985.96 1270.54,-985.96"/>
</g>
<!-- 19 -->
<g id="node19" class="node">
<title>19</title>
<ellipse fill="none" stroke="#ff0000" stroke-width="3" cx="1543.04" cy="-685.38" rx="79.81" ry="37.45"/>
<text text-anchor="middle" x="1543.04" y="-696.68" font-family="Times,serif" font-size="14.00">19 (29)</text>
<text text-anchor="middle" x="1543.04" y="-681.68" font-family="Times,serif" font-size="14.00">CVE&#45;2021&#45;44228</text>
<text text-anchor="middle" x="1543.04" y="-666.68" font-family="Times,serif" font-size="14.00">1.000</text>
</g>
<!-- 9&#45;&gt;19 -->
<g id="edge3" class="edge">
<title>9&#45;&gt;19</title>
<path fill="none" stroke="black" d="M1357.79,-1033.91C1466.45,-1024.17 1642.38,-988.95 1711.04,-864.86 1733.85,-823.64 1736.93,-798.22 1711.04,-758.86 1692.14,-730.12 1659.17,-712.72 1627.41,-702.22"/>
<polygon fill="black" stroke="black" points="1628.2,-698.8 1617.61,-699.18 1626.12,-705.48 1628.2,-698.8"/>
</g>
<!-- 10 -->
<g id="node10" class="node">
<title>10</title>
<ellipse fill="none" stroke="#659a00" stroke-width="3" cx="839.04" cy="-685.38" rx="79.81" ry="37.45"/>
<text text-anchor="middle" x="839.04" y="-696.68" font-family="Times,serif" font-size="14.00">10 (14)</text>
<text text-anchor="middle" x="839.04" y="-681.68" font-family="Times,serif" font-size="14.00">CVE&#45;2021&#45;42287</text>
<text text-anchor="middle" x="839.04" y="-666.68" font-family="Times,serif" font-size="14.00">0.400</text>
</g>
<!-- 10&#45;&gt;5 -->
<g id="edge13" class="edge">
<title>10&#45;&gt;5</title>
<path fill="none" stroke="black" d="M789.49,-655.83C760.12,-638.9 722.49,-617.22 690.44,-598.75"/>
<polygon fill="black" stroke="black" points="691.98,-595.59 681.56,-593.63 688.48,-601.66 691.98,-595.59"/>
</g>
<!-- 11 -->
<g id="node11" class="node">
<title>11</title>
<polygon fill="none" stroke="#cc3300" stroke-width="3" points="1267.04,-864.86 1084.04,-811.86 1267.04,-758.86 1450.04,-811.86 1267.04,-864.86"/>
<text text-anchor="middle" x="1267.04" y="-823.16" font-family="Times,serif" font-size="14.00">11 (16)</text>
<text text-anchor="middle" x="1267.04" y="-808.16" font-family="Times,serif" font-size="14.00">16:validCredentials(domain):0</text>
<text text-anchor="middle" x="1267.04" y="-793.16" font-family="Times,serif" font-size="14.00">0.800</text>
</g>
<!-- 11&#45;&gt;10 -->
<g id="edge11" class="edge">
<title>11&#45;&gt;10</title>
<path fill="none" stroke="black" d="M1177.32,-784.77C1099.91,-762.25 989.29,-730.08 915.88,-708.73"/>
<polygon fill="black" stroke="black" points="916.8,-705.35 906.22,-705.92 914.85,-712.07 916.8,-705.35"/>
</g>
<!-- 16 -->
<g id="node16" class="node">
<title>16</title>
<ellipse fill="none" stroke="#07f800" stroke-width="3" cx="1318.04" cy="-685.38" rx="75.82" ry="37.45"/>
<text text-anchor="middle" x="1318.04" y="-696.68" font-family="Times,serif" font-size="14.00">16 (23)</text>
<text text-anchor="middle" x="1318.04" y="-681.68" font-family="Times,serif" font-size="14.00">CVE&#45;2019&#45;0724</text>
<text text-anchor="middle" x="1318.04" y="-666.68" font-family="Times,serif" font-size="14.00">0.031</text>
</g>
<!-- 11&#45;&gt;16 -->
<g id="edge12" class="edge">
<title>11&#45;&gt;16</title>
<path fill="none" stroke="black" d="M1286.18,-764.16C1290.51,-753.59 1295.1,-742.39 1299.4,-731.88"/>
<polygon fill="black" stroke="black" points="1302.71,-733.04 1303.26,-722.46 1296.23,-730.38 1302.71,-733.04"/>
</g>
<!-- 12&#45;&gt;11 -->
<g id="edge10" class="edge">
<title>12&#45;&gt;11</title>
<path fill="none" stroke="black" d="M1267.04,-900.66C1267.04,-892.62 1267.04,-883.89 1267.04,-875.16"/>
<polygon fill="black" stroke="black" points="1270.54,-874.95 1267.04,-864.95 1263.54,-874.95 1270.54,-874.95"/>
</g>
<!-- 13&#45;&gt;3 -->
<g id="edge16" class="edge">
<title>13&#45;&gt;3</title>
<path fill="none" stroke="black" d="M135.64,-649.21C174.95,-582.08 260.81,-435.43 306.34,-357.69"/>
<polygon fill="black" stroke="black" points="309.38,-359.41 311.42,-349.01 303.34,-355.87 309.38,-359.41"/>
</g>
<!-- 14&#45;&gt;3 -->
<g id="edge17" class="edge">
<title>14&#45;&gt;3</title>
<path fill="none" stroke="black" d="M351.08,-655.96C336.14,-644.32 321.36,-629.43 313.04,-611.91 274.86,-531.43 296.61,-425.45 316.13,-361.97"/>
<polygon fill="black" stroke="black" points="319.55,-362.75 319.23,-352.16 312.88,-360.64 319.55,-362.75"/>
</g>
<!-- 15 -->
<g id="node15" class="node">
<title>15</title>
<polygon fill="none" stroke="#2ed100" stroke-width="3" points="1150.04,-358.95 1040.04,-305.95 1150.04,-252.95 1260.04,-305.95 1150.04,-358.95"/>
<text text-anchor="middle" x="1150.04" y="-317.25" font-family="Times,serif" font-size="14.00">15 (22)</text>
<text text-anchor="middle" x="1150.04" y="-302.25" font-family="Times,serif" font-size="14.00">22:admin(host):0</text>
<text text-anchor="middle" x="1150.04" y="-287.25" font-family="Times,serif" font-size="14.00">0.181</text>
</g>
<!-- 16&#45;&gt;15 -->
<g id="edge19" class="edge">
<title>16&#45;&gt;15</title>
<path fill="none" stroke="black" d="M1243.72,-677.74C1160.51,-668.58 1033.43,-648.85 1004.04,-611.91 937.45,-528.2 1039.64,-409.14 1104.07,-347.48"/>
<polygon fill="black" stroke="black" points="1106.47,-350.02 1111.34,-340.61 1101.66,-344.93 1106.47,-350.02"/>
</g>
<!-- 17 -->
<g id="node17" class="node">
<title>17</title>
<ellipse fill="none" stroke="#32cd00" stroke-width="3" cx="1215.04" cy="-432.43" rx="75.82" ry="37.45"/>
<text text-anchor="middle" x="1215.04" y="-443.73" font-family="Times,serif" font-size="14.00">17 (26)</text>
<text text-anchor="middle" x="1215.04" y="-428.73" font-family="Times,serif" font-size="14.00">CVE&#45;2020&#45;0796</text>
<text text-anchor="middle" x="1215.04" y="-413.73" font-family="Times,serif" font-size="14.00">0.200</text>
</g>
<!-- 17&#45;&gt;15 -->
<g id="edge22" class="edge">
<title>17&#45;&gt;15</title>
<path fill="none" stroke="black" d="M1196.42,-395.76C1190.26,-383.97 1183.28,-370.61 1176.65,-357.9"/>
<polygon fill="black" stroke="black" points="1179.62,-356.03 1171.89,-348.79 1173.42,-359.27 1179.62,-356.03"/>
</g>
<!-- 18 -->
<g id="node18" class="node">
<title>18</title>
<polygon fill="none" stroke="#cb3400" stroke-width="3" points="1522.04,-611.91 1388.04,-558.91 1522.04,-505.91 1656.04,-558.91 1522.04,-611.91"/>
<text text-anchor="middle" x="1522.04" y="-570.21" font-family="Times,serif" font-size="14.00">18 (28)</text>
<text text-anchor="middle" x="1522.04" y="-555.21" font-family="Times,serif" font-size="14.00">28:lowAccess(host):0</text>
<text text-anchor="middle" x="1522.04" y="-540.21" font-family="Times,serif" font-size="14.00">0.800</text>
</g>
<!-- 18&#45;&gt;17 -->
<g id="edge21" class="edge">
<title>18&#45;&gt;17</title>
<path fill="none" stroke="black" d="M1456.94,-531.51C1405.57,-510.68 1334.17,-481.73 1282.27,-460.69"/>
<polygon fill="black" stroke="black" points="1283.39,-457.37 1272.81,-456.85 1280.76,-463.85 1283.39,-457.37"/>
</g>
<!-- 19&#45;&gt;18 -->
<g id="edge20" class="edge">
<title>19&#45;&gt;18</title>
<path fill="none" stroke="black" d="M1536.86,-647.71C1535.33,-638.66 1533.66,-628.74 1532,-618.93"/>
<polygon fill="black" stroke="black" points="1535.4,-618.06 1530.29,-608.78 1528.5,-619.22 1535.4,-618.06"/>
</g>
<!-- ALskills -->
<g id="node20" class="node">
<title>ALskills</title>
<ellipse fill="none" stroke="black" cx="798.04" cy="-1118.81" rx="40.89" ry="18"/>
<text text-anchor="middle" x="798.04" y="-1115.11" font-family="Times,serif" font-size="14.00">ALskills</text>
</g>
<!-- Lskills -->
<g id="node21" class="node">
<title>Lskills</title>
<ellipse fill="none" stroke="black" cx="798.04" cy="-811.86" rx="34.39" ry="18"/>
<text text-anchor="middle" x="798.04" y="-808.16" font-family="Times,serif" font-size="14.00">Lskills</text>
</g>
<!-- ALskills&#45;&gt;Lskills -->
<g id="edge23" class="edge">
<title>ALskills&#45;&gt;Lskills</title>
<path fill="none" stroke="black" d="M798.04,-1100.54C798.04,-1049.91 798.04,-901.53 798.04,-840.04"/>
<polygon fill="black" stroke="black" points="801.54,-839.94 798.04,-829.94 794.54,-839.94 801.54,-839.94"/>
</g>
<!-- Hskills -->
<g id="node22" class="node">
<title>Hskills</title>
<ellipse fill="none" stroke="black" cx="716.04" cy="-1038.31" rx="36" ry="18"/>
<text text-anchor="middle" x="716.04" y="-1034.61" font-family="Times,serif" font-size="14.00">Hskills</text>
</g>
<!-- ALskills&#45;&gt;Hskills -->
<g id="edge24" class="edge">
<title>ALskills&#45;&gt;Hskills</title>
<path fill="none" stroke="black" d="M781.45,-1101.93C769.4,-1090.39 752.93,-1074.63 739.53,-1061.8"/>
<polygon fill="black" stroke="black" points="741.7,-1059.03 732.05,-1054.64 736.86,-1064.08 741.7,-1059.03"/>
</g>
<!-- Lskills&#45;&gt;2 -->
<g id="edge25" class="edge">
<title>Lskills&#45;&gt;2</title>
<path fill="none" stroke="black" d="M808.4,-794.51C816.23,-783.24 827.85,-768.6 841.04,-758.86 874.71,-734 902.81,-756.24 928.04,-722.86 972.01,-664.69 947.04,-632.82 947.04,-559.91 947.04,-559.91 947.04,-559.91 947.04,-431.43 947.04,-300.45 501.87,-217.89 327.2,-190.54"/>
<polygon fill="black" stroke="black" points="327.5,-187.05 317.08,-188.97 326.43,-193.96 327.5,-187.05"/>
</g>
<!-- Lskills&#45;&gt;4 -->
<g id="edge26" class="edge">
<title>Lskills&#45;&gt;4</title>
<path fill="none" stroke="black" d="M785.98,-794.71C774.17,-777.82 756.97,-750.01 750.04,-722.86 741.81,-690.58 735,-677.63 750.04,-647.91 762.25,-623.8 786.84,-636.02 799.04,-611.91 820.32,-569.87 829.38,-541.95 799.04,-505.91 755.4,-454.07 558.89,-439.31 451.19,-435.1"/>
<polygon fill="black" stroke="black" points="451.18,-431.6 441.06,-434.73 450.92,-438.6 451.18,-431.6"/>
</g>
<!-- Lskills&#45;&gt;6 -->
<g id="edge27" class="edge">
<title>Lskills&#45;&gt;6</title>
<path fill="none" stroke="black" d="M786.66,-794.5C778.46,-783.51 766.66,-769.21 754.04,-758.86 731.95,-740.74 704.66,-724.81 680.73,-712.54"/>
<polygon fill="black" stroke="black" points="682.24,-709.38 671.74,-708.02 679.1,-715.64 682.24,-709.38"/>
</g>
<!-- Lskills&#45;&gt;10 -->
<g id="edge28" class="edge">
<title>Lskills&#45;&gt;10</title>
<path fill="none" stroke="black" d="M803.57,-794.07C808.79,-778.25 816.84,-753.8 823.95,-732.2"/>
<polygon fill="black" stroke="black" points="827.34,-733.11 827.14,-722.51 820.69,-730.92 827.34,-733.11"/>
</g>
<!-- Lskills&#45;&gt;14 -->
<g id="edge29" class="edge">
<title>Lskills&#45;&gt;14</title>
<path fill="none" stroke="black" d="M788.29,-794.1C780.54,-782.33 768.59,-767.25 754.04,-758.86 675.41,-713.54 641.91,-741.26 553.04,-722.86 527.47,-717.57 499.67,-711.21 474.76,-705.3"/>
<polygon fill="black" stroke="black" points="475.55,-701.89 465.01,-702.97 473.92,-708.7 475.55,-701.89"/>
</g>
<!-- Lskills&#45;&gt;17 -->
<g id="edge30" class="edge">
<title>Lskills&#45;&gt;17</title>
<path fill="none" stroke="black" d="M807.78,-794.58C815.47,-783.05 827.18,-768.05 841.04,-758.86 887.45,-728.08 907.88,-739.43 961.04,-722.86 999.28,-710.94 1280.48,-644.3 1304.04,-611.91 1331.76,-573.81 1324.27,-548.46 1304.04,-505.91 1296.96,-491 1285.15,-478.16 1272.4,-467.6"/>
<polygon fill="black" stroke="black" points="1274.41,-464.73 1264.38,-461.32 1270.1,-470.24 1274.41,-464.73"/>
</g>
<!-- Lskills&#45;&gt;19 -->
<g id="edge31" class="edge">
<title>Lskills&#45;&gt;19</title>
<path fill="none" stroke="black" d="M806.91,-794.11C814.29,-782.02 826.02,-766.53 841.04,-758.86 952.51,-701.97 1279.49,-742.73 1403.04,-722.86 1423.93,-719.5 1446.22,-714.41 1466.74,-709.08"/>
<polygon fill="black" stroke="black" points="1467.89,-712.4 1476.66,-706.45 1466.09,-705.63 1467.89,-712.4"/>
</g>
<!-- Hskills&#45;&gt;8 -->
<g id="edge33" class="edge">
<title>Hskills&#45;&gt;8</title>
<path fill="none" stroke="black" d="M696.13,-1023.28C678.61,-1010.93 652.33,-992.4 628.9,-975.89"/>
<polygon fill="black" stroke="black" points="630.62,-972.82 620.43,-969.92 626.58,-978.54 630.62,-972.82"/>
</g>
<!-- Hskills&#45;&gt;13 -->
<g id="edge34" class="edge">
<title>Hskills&#45;&gt;13</title>
<path fill="none" stroke="black" d="M689.2,-1026.27C676.81,-1021.43 661.82,-1015.92 648.04,-1011.81 578.2,-990.97 555.99,-1002.21 488.04,-975.81 425.52,-951.52 420.63,-922.22 357.04,-900.86 297.78,-880.96 119.32,-911.81 78.04,-864.86 45.57,-827.93 66.16,-770.07 87.35,-730.3"/>
<polygon fill="black" stroke="black" points="90.52,-731.8 92.29,-721.35 84.39,-728.42 90.52,-731.8"/>
</g>
<!-- Hskills&#45;&gt;16 -->
<g id="edge35" class="edge">
<title>Hskills&#45;&gt;16</title>
<path fill="none" stroke="black" d="M746.86,-1028.96C810.21,-1010.25 955.92,-959.05 1037.04,-864.86 1069.7,-826.94 1038.71,-793.27 1075.04,-758.86 1117.52,-718.63 1181.38,-700.64 1232.97,-692.64"/>
<polygon fill="black" stroke="black" points="1233.72,-696.06 1243.12,-691.16 1232.72,-689.14 1233.72,-696.06"/>
</g>
<!-- Hskills&#45;&gt;Lskills -->
<g id="edge32" class="edge">
<title>Hskills&#45;&gt;Lskills</title>
<path fill="none" stroke="black" d="M722.21,-1020.44C736.4,-981.6 771.47,-885.6 788.48,-839.03"/>
<polygon fill="black" stroke="black" points="791.78,-840.21 791.92,-829.62 785.2,-837.81 791.78,-840.21"/>
</g>
<!-- AHskills -->
<g id="node23" class="node">
<title>AHskills</title>
<ellipse fill="none" stroke="black" cx="697.04" cy="-1118.81" rx="42.49" ry="18"/>
<text text-anchor="middle" x="697.04" y="-1115.11" font-family="Times,serif" font-size="14.00">AHskills</text>
</g>
<!-- AHskills&#45;&gt;Hskills -->
<g id="edge36" class="edge">
<title>AHskills&#45;&gt;Hskills</title>
<path fill="none" stroke="black" d="M701.17,-1100.78C703.61,-1090.7 706.75,-1077.7 709.52,-1066.26"/>
<polygon fill="black" stroke="black" points="712.98,-1066.86 711.93,-1056.31 706.17,-1065.21 712.98,-1066.86"/>
</g>
<!-- Aimpacket -->
<g id="node24" class="node">
<title>Aimpacket</title>
<ellipse fill="none" stroke="black" cx="178.04" cy="-1190.81" rx="50.09" ry="18"/>
<text text-anchor="middle" x="178.04" y="-1187.11" font-family="Times,serif" font-size="14.00">Aimpacket</text>
</g>
<!-- impacketP -->
<g id="node25" class="node">
<title>impacketP</title>
<ellipse fill="none" stroke="black" cx="299.04" cy="-1118.81" rx="48.19" ry="18"/>
<text text-anchor="middle" x="299.04" y="-1115.11" font-family="Times,serif" font-size="14.00">impacketP</text>
</g>
<!-- Aimpacket&#45;&gt;impacketP -->
<g id="edge37" class="edge">
<title>Aimpacket&#45;&gt;impacketP</title>
<path fill="none" stroke="black" d="M203.41,-1175.14C221.36,-1164.76 245.62,-1150.72 265.21,-1139.39"/>
<polygon fill="black" stroke="black" points="267.22,-1142.27 274.13,-1134.23 263.72,-1136.21 267.22,-1142.27"/>
</g>
<!-- impacket -->
<g id="node26" class="node">
<title>impacket</title>
<ellipse fill="none" stroke="black" cx="220.04" cy="-811.86" rx="43.59" ry="18"/>
<text text-anchor="middle" x="220.04" y="-808.16" font-family="Times,serif" font-size="14.00">impacket</text>
</g>
<!-- Aimpacket&#45;&gt;impacket -->
<g id="edge38" class="edge">
<title>Aimpacket&#45;&gt;impacket</title>
<path fill="none" stroke="black" d="M179.96,-1172.64C186.61,-1112.91 208.79,-913.9 216.97,-840.42"/>
<polygon fill="black" stroke="black" points="220.49,-840.46 218.12,-830.14 213.53,-839.69 220.49,-840.46"/>
</g>
<!-- impacketP&#45;&gt;impacket -->
<g id="edge39" class="edge">
<title>impacketP&#45;&gt;impacket</title>
<path fill="none" stroke="black" d="M289.23,-1101.01C274.64,-1075.1 247.58,-1023.4 235.04,-975.81 222.82,-929.41 220.19,-873.3 219.83,-840.5"/>
<polygon fill="black" stroke="black" points="223.32,-840.29 219.78,-830.31 216.32,-840.33 223.32,-840.29"/>
</g>
<!-- impacket8 -->
<g id="node27" class="node">
<title>impacket8</title>
<ellipse fill="none" stroke="black" cx="401.04" cy="-1038.31" rx="48.19" ry="18"/>
<text text-anchor="middle" x="401.04" y="-1034.61" font-family="Times,serif" font-size="14.00">impacket8</text>
</g>
<!-- impacketP&#45;&gt;impacket8 -->
<g id="edge40" class="edge">
<title>impacketP&#45;&gt;impacket8</title>
<path fill="none" stroke="black" d="M319.2,-1102.3C334.56,-1090.48 355.92,-1074.04 372.96,-1060.93"/>
<polygon fill="black" stroke="black" points="375.14,-1063.66 380.93,-1054.79 370.87,-1058.12 375.14,-1063.66"/>
</g>
<!-- impacket14 -->
<g id="node28" class="node">
<title>impacket14</title>
<ellipse fill="none" stroke="black" cx="296.04" cy="-938.34" rx="51.99" ry="18"/>
<text text-anchor="middle" x="296.04" y="-934.64" font-family="Times,serif" font-size="14.00">impacket14</text>
</g>
<!-- impacketP&#45;&gt;impacket14 -->
<g id="edge41" class="edge">
<title>impacketP&#45;&gt;impacket14</title>
<path fill="none" stroke="black" d="M298.76,-1100.7C298.23,-1069.65 297.13,-1003.81 296.5,-966.54"/>
<polygon fill="black" stroke="black" points="300,-966.34 296.33,-956.4 293,-966.46 300,-966.34"/>
</g>
<!-- impacket16 -->
<g id="node29" class="node">
<title>impacket16</title>
<ellipse fill="none" stroke="black" cx="1473.04" cy="-938.34" rx="51.99" ry="18"/>
<text text-anchor="middle" x="1473.04" y="-934.64" font-family="Times,serif" font-size="14.00">impacket16</text>
</g>
<!-- impacketP&#45;&gt;impacket16 -->
<g id="edge42" class="edge">
<title>impacketP&#45;&gt;impacket16</title>
<path fill="none" stroke="black" d="M346.59,-1115.49C553.54,-1105.35 1365.59,-1065.53 1367.04,-1064.81 1410.4,-1043.36 1442.84,-995.24 1459.8,-965.22"/>
<polygon fill="black" stroke="black" points="1463.02,-966.61 1464.75,-956.16 1456.88,-963.25 1463.02,-966.61"/>
</g>
<!-- impacket&#45;&gt;2 -->
<g id="edge43" class="edge">
<title>impacket&#45;&gt;2</title>
<path fill="none" stroke="black" d="M217.7,-793.65C206.71,-711.16 162.39,-356.04 199.04,-252.95 203.33,-240.89 210.58,-229.38 218.56,-219.22"/>
<polygon fill="black" stroke="black" points="221.37,-221.31 225.07,-211.39 215.99,-216.84 221.37,-221.31"/>
</g>
<!-- impacket&#45;&gt;4 -->
<g id="edge44" class="edge">
<title>impacket&#45;&gt;4</title>
<path fill="none" stroke="black" d="M222.53,-793.6C230.03,-745.34 255.59,-606 313.04,-505.91 320.11,-493.59 329.63,-481.65 339.26,-471.14"/>
<polygon fill="black" stroke="black" points="341.93,-473.41 346.27,-463.75 336.85,-468.6 341.93,-473.41"/>
</g>
<!-- impacket&#45;&gt;10 -->
<g id="edge45" class="edge">
<title>impacket&#45;&gt;10</title>
<path fill="none" stroke="black" d="M240.54,-795.73C258.25,-783.53 285.02,-767.1 311.04,-758.86 473.62,-707.4 524.95,-751.61 693.04,-722.86 715.49,-719.02 739.57,-713.57 761.58,-708.05"/>
<polygon fill="black" stroke="black" points="762.7,-711.37 771.53,-705.51 760.97,-704.59 762.7,-711.37"/>
</g>
<!-- impacket&#45;&gt;13 -->
<g id="edge46" class="edge">
<title>impacket&#45;&gt;13</title>
<path fill="none" stroke="black" d="M206.32,-794.59C192.14,-777.79 169.46,-750.89 150.25,-728.12"/>
<polygon fill="black" stroke="black" points="152.74,-725.64 143.62,-720.26 147.39,-730.16 152.74,-725.64"/>
</g>
<!-- impacket8&#45;&gt;8 -->
<g id="edge52" class="edge">
<title>impacket8&#45;&gt;8</title>
<path fill="none" stroke="black" d="M426.64,-1023.07C450.32,-1009.88 486.44,-989.77 517.35,-972.57"/>
<polygon fill="black" stroke="black" points="519.3,-975.49 526.33,-967.57 515.89,-969.37 519.3,-975.49"/>
</g>
<!-- impacket14&#45;&gt;14 -->
<g id="edge58" class="edge">
<title>impacket14&#45;&gt;14</title>
<path fill="none" stroke="black" d="M293.32,-920.16C288.91,-886.89 283.26,-812.23 311.04,-758.86 318.56,-744.42 330.32,-731.74 342.79,-721.19"/>
<polygon fill="black" stroke="black" points="345.01,-723.89 350.61,-714.9 340.62,-718.44 345.01,-723.89"/>
</g>
<!-- impacket16&#45;&gt;16 -->
<g id="edge59" class="edge">
<title>impacket16&#45;&gt;16</title>
<path fill="none" stroke="black" d="M1476.76,-920.36C1483.17,-886.46 1492.62,-809.32 1459.04,-758.86 1443.56,-735.6 1418.18,-719.38 1393.19,-708.29"/>
<polygon fill="black" stroke="black" points="1394.23,-704.93 1383.65,-704.29 1391.52,-711.38 1394.23,-704.93"/>
</g>
<!-- AimpacketP -->
<g id="node30" class="node">
<title>AimpacketP</title>
<ellipse fill="none" stroke="black" cx="301.04" cy="-1190.81" rx="54.69" ry="18"/>
<text text-anchor="middle" x="301.04" y="-1187.11" font-family="Times,serif" font-size="14.00">AimpacketP</text>
</g>
<!-- AimpacketP&#45;&gt;impacketP -->
<g id="edge47" class="edge">
<title>AimpacketP&#45;&gt;impacketP</title>
<path fill="none" stroke="black" d="M300.55,-1172.51C300.33,-1164.8 300.06,-1155.53 299.82,-1146.93"/>
<polygon fill="black" stroke="black" points="303.32,-1146.81 299.53,-1136.92 296.32,-1147.01 303.32,-1146.81"/>
</g>
<!-- Permissions move -->
<g id="node31" class="node">
<title>Permissions move</title>
<ellipse fill="none" stroke="black" cx="76.04" cy="-305.95" rx="76.09" ry="18"/>
<text text-anchor="middle" x="76.04" y="-302.25" font-family="Times,serif" font-size="14.00">Permissions move</text>
</g>
<!-- Permissions move&#45;&gt;2 -->
<g id="edge48" class="edge">
<title>Permissions move&#45;&gt;2</title>
<path fill="none" stroke="black" d="M99.84,-288.68C127.58,-269.71 174.15,-237.86 209.6,-213.61"/>
<polygon fill="black" stroke="black" points="211.62,-216.47 217.89,-207.94 207.66,-210.69 211.62,-216.47"/>
</g>
<!-- Lateral move -->
<g id="node32" class="node">
<title>Lateral move</title>
<ellipse fill="none" stroke="black" cx="380.04" cy="-558.91" rx="57.69" ry="18"/>
<text text-anchor="middle" x="380.04" y="-555.21" font-family="Times,serif" font-size="14.00">Lateral move</text>
</g>
<!-- Lateral move&#45;&gt;4 -->
<g id="edge49" class="edge">
<title>Lateral move&#45;&gt;4</title>
<path fill="none" stroke="black" d="M380.04,-540.86C380.04,-525.24 380.04,-501.38 380.04,-480.11"/>
<polygon fill="black" stroke="black" points="383.54,-479.92 380.04,-469.92 376.54,-479.92 383.54,-479.92"/>
</g>
<!-- certipy -->
<g id="node33" class="node">
<title>certipy</title>
<ellipse fill="none" stroke="black" cx="710.04" cy="-811.86" rx="35.19" ry="18"/>
<text text-anchor="middle" x="710.04" y="-808.16" font-family="Times,serif" font-size="14.00">certipy</text>
</g>
<!-- certipy&#45;&gt;6 -->
<g id="edge50" class="edge">
<title>certipy&#45;&gt;6</title>
<path fill="none" stroke="black" d="M698.67,-794.59C686.99,-777.87 668.33,-751.17 652.46,-728.48"/>
<polygon fill="black" stroke="black" points="655.14,-726.19 646.54,-720 649.4,-730.2 655.14,-726.19"/>
</g>
<!-- ADCS -->
<g id="node34" class="node">
<title>ADCS</title>
<ellipse fill="none" stroke="black" cx="622.04" cy="-811.86" rx="34.39" ry="18"/>
<text text-anchor="middle" x="622.04" y="-808.16" font-family="Times,serif" font-size="14.00">ADCS</text>
</g>
<!-- ADCS&#45;&gt;6 -->
<g id="edge51" class="edge">
<title>ADCS&#45;&gt;6</title>
<path fill="none" stroke="black" d="M622.18,-793.81C622.31,-778.19 622.5,-754.33 622.67,-733.06"/>
<polygon fill="black" stroke="black" points="626.17,-732.9 622.75,-722.87 619.17,-732.84 626.17,-732.9"/>
</g>
<!-- No credentials -->
<g id="node35" class="node">
<title>No credentials</title>
<ellipse fill="none" stroke="black" cx="577.04" cy="-1038.31" rx="61.99" ry="18"/>
<text text-anchor="middle" x="577.04" y="-1034.61" font-family="Times,serif" font-size="14.00">No credentials</text>
</g>
<!-- No credentials&#45;&gt;8 -->
<g id="edge53" class="edge">
<title>No credentials&#45;&gt;8</title>
<path fill="none" stroke="black" d="M577.04,-1020.25C577.04,-1010.74 577.04,-998.39 577.04,-986.21"/>
<polygon fill="black" stroke="black" points="580.54,-986.09 577.04,-976.09 573.54,-986.09 580.54,-986.09"/>
</g>
<!-- Known vulnerabilities -->
<g id="node36" class="node">
<title>Known vulnerabilities</title>
<ellipse fill="none" stroke="black" cx="939.04" cy="-811.86" rx="89.08" ry="18"/>
<text text-anchor="middle" x="939.04" y="-808.16" font-family="Times,serif" font-size="14.00">Known vulnerabilities</text>
</g>
<!-- Known vulnerabilities&#45;&gt;10 -->
<g id="edge54" class="edge">
<title>Known vulnerabilities&#45;&gt;10</title>
<path fill="none" stroke="black" d="M925.35,-793.81C911.91,-777.09 890.89,-750.92 872.96,-728.6"/>
<polygon fill="black" stroke="black" points="875.5,-726.18 866.51,-720.58 870.05,-730.56 875.5,-726.18"/>
</g>
<!-- Known vulnerabilities&#45;&gt;16 -->
<g id="edge55" class="edge">
<title>Known vulnerabilities&#45;&gt;16</title>
<path fill="none" stroke="black" d="M966.12,-794.58C986.38,-783.05 1015.13,-768.06 1042.04,-758.86 1121.72,-731.63 1147.31,-746.79 1228.04,-722.86 1236.18,-720.45 1244.59,-717.58 1252.86,-714.52"/>
<polygon fill="black" stroke="black" points="1254.37,-717.69 1262.47,-710.86 1251.88,-711.15 1254.37,-717.69"/>
</g>
<!-- MITM -->
<g id="node37" class="node">
<title>MITM</title>
<ellipse fill="none" stroke="black" cx="123.04" cy="-811.86" rx="36" ry="18"/>
<text text-anchor="middle" x="123.04" y="-808.16" font-family="Times,serif" font-size="14.00">MITM</text>
</g>
<!-- MITM&#45;&gt;13 -->
<g id="edge56" class="edge">
<title>MITM&#45;&gt;13</title>
<path fill="none" stroke="black" d="M121.95,-793.81C120.94,-778.19 119.41,-754.33 118.04,-733.06"/>
<polygon fill="black" stroke="black" points="121.52,-732.63 117.39,-722.87 114.54,-733.08 121.52,-732.63"/>
</g>
<!-- MITM&#45;&gt;14 -->
<g id="edge57" class="edge">
<title>MITM&#45;&gt;14</title>
<path fill="none" stroke="black" d="M133.46,-794.15C141.39,-782.71 153.25,-768.02 167.04,-758.86 212.07,-728.95 270.15,-710.8 316.81,-700.15"/>
<polygon fill="black" stroke="black" points="317.58,-703.56 326.59,-697.98 316.07,-696.73 317.58,-703.56"/>
</g>
<!-- unknown17 -->
<g id="node38" class="node">
<title>unknown17</title>
<ellipse fill="none" stroke="black" cx="1065.04" cy="-558.91" rx="51.99" ry="18"/>
<text text-anchor="middle" x="1065.04" y="-555.21" font-family="Times,serif" font-size="14.00">unknown17</text>
</g>
<!-- unknown17&#45;&gt;17 -->
<g id="edge60" class="edge">
<title>unknown17&#45;&gt;17</title>
<path fill="none" stroke="black" d="M1083.64,-541.87C1095.68,-531.53 1111.72,-517.84 1126.04,-505.91 1139.74,-494.5 1154.73,-482.21 1168.43,-471.06"/>
<polygon fill="black" stroke="black" points="1170.78,-473.66 1176.34,-464.64 1166.37,-468.23 1170.78,-473.66"/>
</g>
<!-- Privilege escalation -->
<g id="node39" class="node">
<title>Privilege escalation</title>
<ellipse fill="none" stroke="black" cx="1215.04" cy="-558.91" rx="79.89" ry="18"/>
<text text-anchor="middle" x="1215.04" y="-555.21" font-family="Times,serif" font-size="14.00">Privilege escalation</text>
</g>
<!-- Privilege escalation&#45;&gt;17 -->
<g id="edge61" class="edge">
<title>Privilege escalation&#45;&gt;17</title>
<path fill="none" stroke="black" d="M1215.04,-540.86C1215.04,-525.24 1215.04,-501.38 1215.04,-480.11"/>
<polygon fill="black" stroke="black" points="1218.54,-479.92 1215.04,-469.92 1211.54,-479.92 1218.54,-479.92"/>
</g>
<!-- unknown19 -->
<g id="node40" class="node">
<title>unknown19</title>
<ellipse fill="none" stroke="black" cx="1650.04" cy="-811.86" rx="51.99" ry="18"/>
<text text-anchor="middle" x="1650.04" y="-808.16" font-family="Times,serif" font-size="14.00">unknown19</text>
</g>
<!-- unknown19&#45;&gt;19 -->
<g id="edge62" class="edge">
<title>unknown19&#45;&gt;19</title>
<path fill="none" stroke="black" d="M1635.83,-794.33C1621.39,-777.53 1598.44,-750.82 1578.97,-728.18"/>
<polygon fill="black" stroke="black" points="1581.43,-725.67 1572.25,-720.36 1576.12,-730.23 1581.43,-725.67"/>
</g>
<!-- CQCM -->
<g id="node41" class="node">
<title>CQCM</title>
<ellipse fill="none" stroke="black" cx="1543.04" cy="-811.86" rx="37.09" ry="18"/>
<text text-anchor="middle" x="1543.04" y="-808.16" font-family="Times,serif" font-size="14.00">CQCM</text>
</g>
<!-- CQCM&#45;&gt;19 -->
<g id="edge63" class="edge">
<title>CQCM&#45;&gt;19</title>
<path fill="none" stroke="black" d="M1543.04,-793.81C1543.04,-778.19 1543.04,-754.33 1543.04,-733.06"/>
<polygon fill="black" stroke="black" points="1546.54,-732.87 1543.04,-722.87 1539.54,-732.87 1546.54,-732.87"/>
</g>
</g>
</svg>
