<?xml version="1.0" encoding="UTF-8" standalone="no"?>
<!DOCTYPE svg PUBLIC "-//W3C//DTD SVG 1.1//EN"
 "http://www.w3.org/Graphics/SVG/1.1/DTD/svg11.dtd">
<!-- Generated by graphviz version 2.43.0 (0)
 -->
<!-- Title: G Pages: 1 -->
<svg width="1132pt" height="1073pt"
 viewBox="0.00 0.00 1131.66 1072.81" xmlns="http://www.w3.org/2000/svg" xmlns:xlink="http://www.w3.org/1999/xlink">
<g id="graph0" class="graph" transform="scale(1 1) rotate(0) translate(4 1068.81)">
<title>G</title>
<polygon fill="white" stroke="transparent" points="-4,4 -4,-1068.81 1127.66,-1068.81 1127.66,4 -4,4"/>
<!-- 1 -->
<g id="node1" class="node">
<title>1</title>
<polygon fill="none" stroke="#9e6100" stroke-width="3" points="336.66,-106 214.66,-53 336.66,0 458.66,-53 336.66,-106"/>
<text text-anchor="middle" x="336.66" y="-64.3" font-family="Times,serif" font-size="14.00">1 (1)</text>
<text text-anchor="middle" x="336.66" y="-49.3" font-family="Times,serif" font-size="14.00">1:admin(domain):0</text>
<text text-anchor="middle" x="336.66" y="-34.3" font-family="Times,serif" font-size="14.00">0.620</text>
</g>
<!-- 2 -->
<g id="node2" class="node">
<title>2</title>
<ellipse fill="none" stroke="#c53a00" stroke-width="3" cx="336.66" cy="-179.48" rx="60.62" ry="37.45"/>
<text text-anchor="middle" x="336.66" y="-190.78" font-family="Times,serif" font-size="14.00">2 (2)</text>
<text text-anchor="middle" x="336.66" y="-175.78" font-family="Times,serif" font-size="14.00">CVE&#45;0000&#45;1</text>
<text text-anchor="middle" x="336.66" y="-160.78" font-family="Times,serif" font-size="14.00">0.775</text>
</g>
<!-- 2&#45;&gt;1 -->
<g id="edge18" class="edge">
<title>2&#45;&gt;1</title>
<path fill="none" stroke="black" d="M336.66,-141.8C336.66,-133.76 336.66,-125.03 336.66,-116.3"/>
<polygon fill="black" stroke="black" points="340.16,-116.09 336.66,-106.09 333.16,-116.09 340.16,-116.09"/>
</g>
<!-- 3 -->
<g id="node3" class="node">
<title>3</title>
<polygon fill="none" stroke="#c53a00" stroke-width="3" points="336.66,-358.95 208.66,-305.95 336.66,-252.95 464.66,-305.95 336.66,-358.95"/>
<text text-anchor="middle" x="336.66" y="-317.25" font-family="Times,serif" font-size="14.00">3 (4)</text>
<text text-anchor="middle" x="336.66" y="-302.25" font-family="Times,serif" font-size="14.00">4:dcSync(domain):0</text>
<text text-anchor="middle" x="336.66" y="-287.25" font-family="Times,serif" font-size="14.00">0.776</text>
</g>
<!-- 3&#45;&gt;2 -->
<g id="edge15" class="edge">
<title>3&#45;&gt;2</title>
<path fill="none" stroke="black" d="M336.66,-252.89C336.66,-244.45 336.66,-235.77 336.66,-227.46"/>
<polygon fill="black" stroke="black" points="340.16,-227.2 336.66,-217.2 333.16,-227.2 340.16,-227.2"/>
</g>
<!-- 4 -->
<g id="node4" class="node">
<title>4</title>
<ellipse fill="none" stroke="#e11e00" stroke-width="3" cx="336.66" cy="-432.43" rx="60.62" ry="37.45"/>
<text text-anchor="middle" x="336.66" y="-443.73" font-family="Times,serif" font-size="14.00">4 (5)</text>
<text text-anchor="middle" x="336.66" y="-428.73" font-family="Times,serif" font-size="14.00">CVE&#45;0000&#45;2</text>
<text text-anchor="middle" x="336.66" y="-413.73" font-family="Times,serif" font-size="14.00">0.884</text>
</g>
<!-- 4&#45;&gt;3 -->
<g id="edge14" class="edge">
<title>4&#45;&gt;3</title>
<path fill="none" stroke="black" d="M336.66,-394.76C336.66,-386.72 336.66,-377.99 336.66,-369.25"/>
<polygon fill="black" stroke="black" points="340.16,-369.04 336.66,-359.04 333.16,-369.04 340.16,-369.04"/>
</g>
<!-- 5 -->
<g id="node5" class="node">
<title>5</title>
<polygon fill="none" stroke="#e11e00" stroke-width="3" points="336.66,-611.91 169.66,-558.91 336.66,-505.91 503.66,-558.91 336.66,-611.91"/>
<text text-anchor="middle" x="336.66" y="-570.21" font-family="Times,serif" font-size="14.00">5 (7)</text>
<text text-anchor="middle" x="336.66" y="-555.21" font-family="Times,serif" font-size="14.00">7:passTheTicket(domain):0</text>
<text text-anchor="middle" x="336.66" y="-540.21" font-family="Times,serif" font-size="14.00">0.885</text>
</g>
<!-- 5&#45;&gt;4 -->
<g id="edge9" class="edge">
<title>5&#45;&gt;4</title>
<path fill="none" stroke="black" d="M336.66,-505.84C336.66,-497.41 336.66,-488.72 336.66,-480.42"/>
<polygon fill="black" stroke="black" points="340.16,-480.16 336.66,-470.16 333.16,-480.16 340.16,-480.16"/>
</g>
<!-- 6 -->
<g id="node6" class="node">
<title>6</title>
<ellipse fill="none" stroke="#b84700" stroke-width="3" cx="329.66" cy="-685.38" rx="60.62" ry="37.45"/>
<text text-anchor="middle" x="329.66" y="-696.68" font-family="Times,serif" font-size="14.00">6 (8)</text>
<text text-anchor="middle" x="329.66" y="-681.68" font-family="Times,serif" font-size="14.00">CVE&#45;0000&#45;3</text>
<text text-anchor="middle" x="329.66" y="-666.68" font-family="Times,serif" font-size="14.00">0.724</text>
</g>
<!-- 6&#45;&gt;5 -->
<g id="edge8" class="edge">
<title>6&#45;&gt;5</title>
<path fill="none" stroke="black" d="M331.72,-647.71C332.19,-639.37 332.7,-630.3 333.21,-621.24"/>
<polygon fill="black" stroke="black" points="336.72,-621.26 333.78,-611.07 329.73,-620.86 336.72,-621.26"/>
</g>
<!-- 7 -->
<g id="node7" class="node">
<title>7</title>
<polygon fill="none" stroke="#b84700" stroke-width="3" points="328.66,-864.86 203.66,-811.86 328.66,-758.86 453.66,-811.86 328.66,-864.86"/>
<text text-anchor="middle" x="328.66" y="-823.16" font-family="Times,serif" font-size="14.00">7 (10)</text>
<text text-anchor="middle" x="328.66" y="-808.16" font-family="Times,serif" font-size="14.00">10:mitm(domain):0</text>
<text text-anchor="middle" x="328.66" y="-793.16" font-family="Times,serif" font-size="14.00">0.725</text>
</g>
<!-- 7&#45;&gt;6 -->
<g id="edge5" class="edge">
<title>7&#45;&gt;6</title>
<path fill="none" stroke="black" d="M329.08,-758.79C329.15,-750.36 329.22,-741.67 329.28,-733.37"/>
<polygon fill="black" stroke="black" points="332.78,-733.14 329.37,-723.11 325.79,-733.08 332.78,-733.14"/>
</g>
<!-- 13 -->
<g id="node13" class="node">
<title>13</title>
<ellipse fill="none" stroke="#0af500" stroke-width="3" cx="510.66" cy="-432.43" rx="75.82" ry="37.45"/>
<text text-anchor="middle" x="510.66" y="-443.73" font-family="Times,serif" font-size="14.00">13 (18)</text>
<text text-anchor="middle" x="510.66" y="-428.73" font-family="Times,serif" font-size="14.00">CVE&#45;2019&#45;1040</text>
<text text-anchor="middle" x="510.66" y="-413.73" font-family="Times,serif" font-size="14.00">0.040</text>
</g>
<!-- 7&#45;&gt;13 -->
<g id="edge6" class="edge">
<title>7&#45;&gt;13</title>
<path fill="none" stroke="black" d="M374.46,-778.14C419.39,-742.95 485.04,-682.44 512.66,-611.91 529.29,-569.44 526.14,-516.82 520.45,-479.75"/>
<polygon fill="black" stroke="black" points="523.88,-479.03 518.8,-469.73 516.97,-480.17 523.88,-479.03"/>
</g>
<!-- 14 -->
<g id="node14" class="node">
<title>14</title>
<ellipse fill="none" stroke="#53ac00" stroke-width="3" cx="75.66" cy="-558.91" rx="75.82" ry="37.45"/>
<text text-anchor="middle" x="75.66" y="-570.21" font-family="Times,serif" font-size="14.00">14 (20)</text>
<text text-anchor="middle" x="75.66" y="-555.21" font-family="Times,serif" font-size="14.00">CVE&#45;2020&#45;1472</text>
<text text-anchor="middle" x="75.66" y="-540.21" font-family="Times,serif" font-size="14.00">0.327</text>
</g>
<!-- 7&#45;&gt;14 -->
<g id="edge7" class="edge">
<title>7&#45;&gt;14</title>
<path fill="none" stroke="black" d="M291.87,-774.37C245.07,-727.95 164.53,-648.05 116.06,-599.98"/>
<polygon fill="black" stroke="black" points="118.43,-597.4 108.86,-592.84 113.5,-602.37 118.43,-597.4"/>
</g>
<!-- 8 -->
<g id="node8" class="node">
<title>8</title>
<ellipse fill="none" stroke="#e71800" stroke-width="3" cx="377.66" cy="-938.34" rx="79.81" ry="37.45"/>
<text text-anchor="middle" x="377.66" y="-949.64" font-family="Times,serif" font-size="14.00">8 (11)</text>
<text text-anchor="middle" x="377.66" y="-934.64" font-family="Times,serif" font-size="14.00">CVE&#45;2022&#45;26925</text>
<text text-anchor="middle" x="377.66" y="-919.64" font-family="Times,serif" font-size="14.00">0.906</text>
</g>
<!-- 8&#45;&gt;7 -->
<g id="edge4" class="edge">
<title>8&#45;&gt;7</title>
<path fill="none" stroke="black" d="M363.49,-901.33C359.29,-890.67 354.6,-878.76 350.06,-867.21"/>
<polygon fill="black" stroke="black" points="353.21,-865.66 346.29,-857.64 346.69,-868.22 353.21,-865.66"/>
</g>
<!-- 9 -->
<g id="node9" class="node">
<title>9</title>
<polygon fill="none" stroke="#ff0000" stroke-width="3" points="745.16,-1064.81 564.16,-1064.81 564.16,-1011.81 745.16,-1011.81 745.16,-1064.81"/>
<text text-anchor="middle" x="654.66" y="-1049.61" font-family="Times,serif" font-size="14.00">9 (13)</text>
<text text-anchor="middle" x="654.66" y="-1034.61" font-family="Times,serif" font-size="14.00">13:attackerLocated(domain):1</text>
<text text-anchor="middle" x="654.66" y="-1019.61" font-family="Times,serif" font-size="14.00">1.000</text>
</g>
<!-- 9&#45;&gt;8 -->
<g id="edge1" class="edge">
<title>9&#45;&gt;8</title>
<path fill="none" stroke="black" d="M582.24,-1011.7C541.58,-997.32 490.99,-979.42 450.3,-965.03"/>
<polygon fill="black" stroke="black" points="451.3,-961.67 440.71,-961.64 448.97,-968.27 451.3,-961.67"/>
</g>
<!-- 12 -->
<g id="node12" class="node">
<title>12</title>
<ellipse fill="none" stroke="#ff0000" stroke-width="3" cx="654.66" cy="-938.34" rx="130.63" ry="37.45"/>
<text text-anchor="middle" x="654.66" y="-949.64" font-family="Times,serif" font-size="14.00">12 (17)</text>
<text text-anchor="middle" x="654.66" y="-934.64" font-family="Times,serif" font-size="14.00">valid credentials may be found</text>
<text text-anchor="middle" x="654.66" y="-919.64" font-family="Times,serif" font-size="14.00">1.000</text>
</g>
<!-- 9&#45;&gt;12 -->
<g id="edge2" class="edge">
<title>9&#45;&gt;12</title>
<path fill="none" stroke="black" d="M654.66,-1011.57C654.66,-1003.75 654.66,-994.89 654.66,-986.13"/>
<polygon fill="black" stroke="black" points="658.16,-985.96 654.66,-975.96 651.16,-985.96 658.16,-985.96"/>
</g>
<!-- 19 -->
<g id="node19" class="node">
<title>19</title>
<ellipse fill="none" stroke="#f80700" stroke-width="3" cx="936.66" cy="-938.34" rx="79.81" ry="37.45"/>
<text text-anchor="middle" x="936.66" y="-949.64" font-family="Times,serif" font-size="14.00">19 (29)</text>
<text text-anchor="middle" x="936.66" y="-934.64" font-family="Times,serif" font-size="14.00">CVE&#45;2021&#45;44228</text>
<text text-anchor="middle" x="936.66" y="-919.64" font-family="Times,serif" font-size="14.00">0.976</text>
</g>
<!-- 9&#45;&gt;19 -->
<g id="edge3" class="edge">
<title>9&#45;&gt;19</title>
<path fill="none" stroke="black" d="M728.38,-1011.7C770.17,-997.18 822.25,-979.09 863.88,-964.62"/>
<polygon fill="black" stroke="black" points="865.11,-967.9 873.41,-961.31 862.81,-961.29 865.11,-967.9"/>
</g>
<!-- 10 -->
<g id="node10" class="node">
<title>10</title>
<ellipse fill="none" stroke="#e71800" stroke-width="3" cx="641.66" cy="-685.38" rx="79.81" ry="37.45"/>
<text text-anchor="middle" x="641.66" y="-696.68" font-family="Times,serif" font-size="14.00">10 (14)</text>
<text text-anchor="middle" x="641.66" y="-681.68" font-family="Times,serif" font-size="14.00">CVE&#45;2021&#45;42287</text>
<text text-anchor="middle" x="641.66" y="-666.68" font-family="Times,serif" font-size="14.00">0.908</text>
</g>
<!-- 10&#45;&gt;5 -->
<g id="edge13" class="edge">
<title>10&#45;&gt;5</title>
<path fill="none" stroke="black" d="M582.13,-660.09C535.29,-640.97 469.53,-614.13 417.86,-593.05"/>
<polygon fill="black" stroke="black" points="418.97,-589.72 408.38,-589.18 416.32,-596.2 418.97,-589.72"/>
</g>
<!-- 11 -->
<g id="node11" class="node">
<title>11</title>
<polygon fill="none" stroke="#ff0000" stroke-width="3" points="654.66,-864.86 471.66,-811.86 654.66,-758.86 837.66,-811.86 654.66,-864.86"/>
<text text-anchor="middle" x="654.66" y="-823.16" font-family="Times,serif" font-size="14.00">11 (16)</text>
<text text-anchor="middle" x="654.66" y="-808.16" font-family="Times,serif" font-size="14.00">16:validCredentials(domain):0</text>
<text text-anchor="middle" x="654.66" y="-793.16" font-family="Times,serif" font-size="14.00">1.000</text>
</g>
<!-- 11&#45;&gt;10 -->
<g id="edge11" class="edge">
<title>11&#45;&gt;10</title>
<path fill="none" stroke="black" d="M649.37,-760.23C648.43,-751.23 647.46,-741.9 646.53,-733.02"/>
<polygon fill="black" stroke="black" points="649.99,-732.43 645.47,-722.85 643.03,-733.16 649.99,-732.43"/>
</g>
<!-- 16 -->
<g id="node16" class="node">
<title>16</title>
<ellipse fill="none" stroke="#ff0000" stroke-width="3" cx="816.66" cy="-685.38" rx="75.82" ry="37.45"/>
<text text-anchor="middle" x="816.66" y="-696.68" font-family="Times,serif" font-size="14.00">16 (23)</text>
<text text-anchor="middle" x="816.66" y="-681.68" font-family="Times,serif" font-size="14.00">CVE&#45;2019&#45;0724</text>
<text text-anchor="middle" x="816.66" y="-666.68" font-family="Times,serif" font-size="14.00">1.000</text>
</g>
<!-- 11&#45;&gt;16 -->
<g id="edge12" class="edge">
<title>11&#45;&gt;16</title>
<path fill="none" stroke="black" d="M704.15,-772.84C724.51,-757.19 748.02,-739.12 768.27,-723.57"/>
<polygon fill="black" stroke="black" points="770.64,-726.16 776.44,-717.29 766.37,-720.61 770.64,-726.16"/>
</g>
<!-- 12&#45;&gt;11 -->
<g id="edge10" class="edge">
<title>12&#45;&gt;11</title>
<path fill="none" stroke="black" d="M654.66,-900.66C654.66,-892.62 654.66,-883.89 654.66,-875.16"/>
<polygon fill="black" stroke="black" points="658.16,-874.95 654.66,-864.95 651.16,-874.95 658.16,-874.95"/>
</g>
<!-- 13&#45;&gt;3 -->
<g id="edge16" class="edge">
<title>13&#45;&gt;3</title>
<path fill="none" stroke="black" d="M468.54,-401.3C445.32,-384.68 416.22,-363.87 391.27,-346.02"/>
<polygon fill="black" stroke="black" points="393.15,-343.06 382.98,-340.09 389.08,-348.75 393.15,-343.06"/>
</g>
<!-- 14&#45;&gt;3 -->
<g id="edge17" class="edge">
<title>14&#45;&gt;3</title>
<path fill="none" stroke="black" d="M109.51,-525.36C155.92,-480.74 239.42,-400.45 291.23,-350.64"/>
<polygon fill="black" stroke="black" points="293.85,-352.97 298.64,-343.51 289,-347.92 293.85,-352.97"/>
</g>
<!-- 15 -->
<g id="node15" class="node">
<title>15</title>
<polygon fill="none" stroke="#eb1400" stroke-width="3" points="900.66,-611.91 790.66,-558.91 900.66,-505.91 1010.66,-558.91 900.66,-611.91"/>
<text text-anchor="middle" x="900.66" y="-570.21" font-family="Times,serif" font-size="14.00">15 (22)</text>
<text text-anchor="middle" x="900.66" y="-555.21" font-family="Times,serif" font-size="14.00">22:admin(host):0</text>
<text text-anchor="middle" x="900.66" y="-540.21" font-family="Times,serif" font-size="14.00">0.922</text>
</g>
<!-- 16&#45;&gt;15 -->
<g id="edge19" class="edge">
<title>16&#45;&gt;15</title>
<path fill="none" stroke="black" d="M840.06,-649.71C848.82,-636.72 858.94,-621.73 868.37,-607.76"/>
<polygon fill="black" stroke="black" points="871.44,-609.47 874.13,-599.22 865.64,-605.55 871.44,-609.47"/>
</g>
<!-- 17 -->
<g id="node17" class="node">
<title>17</title>
<ellipse fill="none" stroke="#c23d00" stroke-width="3" cx="985.66" cy="-685.38" rx="75.82" ry="37.45"/>
<text text-anchor="middle" x="985.66" y="-696.68" font-family="Times,serif" font-size="14.00">17 (26)</text>
<text text-anchor="middle" x="985.66" y="-681.68" font-family="Times,serif" font-size="14.00">CVE&#45;2020&#45;0796</text>
<text text-anchor="middle" x="985.66" y="-666.68" font-family="Times,serif" font-size="14.00">0.761</text>
</g>
<!-- 17&#45;&gt;15 -->
<g id="edge22" class="edge">
<title>17&#45;&gt;15</title>
<path fill="none" stroke="black" d="M961.98,-649.71C953.12,-636.72 942.88,-621.73 933.34,-607.76"/>
<polygon fill="black" stroke="black" points="936.04,-605.5 927.51,-599.22 930.25,-609.45 936.04,-605.5"/>
</g>
<!-- 18 -->
<g id="node18" class="node">
<title>18</title>
<polygon fill="none" stroke="#c73800" stroke-width="3" points="989.66,-864.86 855.66,-811.86 989.66,-758.86 1123.66,-811.86 989.66,-864.86"/>
<text text-anchor="middle" x="989.66" y="-823.16" font-family="Times,serif" font-size="14.00">18 (28)</text>
<text text-anchor="middle" x="989.66" y="-808.16" font-family="Times,serif" font-size="14.00">28:lowAccess(host):0</text>
<text text-anchor="middle" x="989.66" y="-793.16" font-family="Times,serif" font-size="14.00">0.780</text>
</g>
<!-- 18&#45;&gt;17 -->
<g id="edge21" class="edge">
<title>18&#45;&gt;17</title>
<path fill="none" stroke="black" d="M988.01,-759.51C987.73,-750.85 987.44,-741.89 987.17,-733.34"/>
<polygon fill="black" stroke="black" points="990.66,-733.05 986.84,-723.17 983.67,-733.28 990.66,-733.05"/>
</g>
<!-- 19&#45;&gt;18 -->
<g id="edge20" class="edge">
<title>19&#45;&gt;18</title>
<path fill="none" stroke="black" d="M951.99,-901.33C956.57,-890.57 961.7,-878.52 966.67,-866.87"/>
<polygon fill="black" stroke="black" points="969.9,-868.21 970.6,-857.64 963.46,-865.47 969.9,-868.21"/>
</g>
</g>
</svg>
